<svg xmlns="http://www.w3.org/2000/svg" width="128" height="128" fill="none" viewBox="0 0 128 128" id="recycle-bin">
  <path fill="url(#paint0_linear_546_8741)" fill-rule="evenodd" d="M55.3084 31C55.3084 26.8579 58.6663 23.5 62.8084 23.5H64.7716C68.9137 23.5 72.2716 26.8579 72.2716 31V32.62H85.9372C90.0793 32.62 93.4372 35.9779 93.4372 40.12V41.74C93.4372 43.8423 92.1397 45.6416 90.3018 46.3808L85.8287 97.6519C85.4907 101.527 82.2466 104.5 78.3571 104.5H48.6429C44.7534 104.5 41.5093 101.527 41.1713 97.6519L36.6727 46.0882C35.1617 45.228 34.1428 43.603 34.1428 41.74V40.12C34.1428 35.9779 37.5007 32.62 41.6428 32.62H55.3084V31ZM67.2716 31V32.62H60.3084V31C60.3084 29.6193 61.4277 28.5 62.8084 28.5H64.7716C66.1523 28.5 67.2716 29.6193 67.2716 31ZM41.6428 37.62H55.3084H57.8084H69.7716H72.2716H85.9372C87.3179 37.62 88.4372 38.7393 88.4372 40.12V41.5H88H39.1428V40.12C39.1428 38.7393 40.2621 37.62 41.6428 37.62ZM41.7485 46.74H85.2515L80.8476 97.2173C80.735 98.5089 79.6536 99.5 78.3571 99.5H48.6429C47.3464 99.5 46.265 98.5089 46.1524 97.2173L41.7485 46.74ZM66.5 57C66.5 55.6193 65.3807 54.5 64 54.5C62.6193 54.5 61.5 55.6193 61.5 57V91C61.5 92.3807 62.6193 93.5 64 93.5C65.3807 93.5 66.5 92.3807 66.5 91V57ZM51.7803 54.5097C53.1556 54.3883 54.369 55.4049 54.4903 56.7803L57.4903 90.7803C57.6117 92.1556 56.5951 93.369 55.2197 93.4903C53.8444 93.6117 52.631 92.5951 52.5097 91.2197L49.5097 57.2197C49.3883 55.8444 50.4049 54.631 51.7803 54.5097ZM73.5097 56.7803C73.631 55.4049 74.8444 54.3883 76.2197 54.5097C77.5951 54.631 78.6117 55.8444 78.4903 57.2197L75.4903 91.2197C75.369 92.5951 74.1556 93.6117 72.7803 93.4903C71.4049 93.369 70.3883 92.1556 70.5097 90.7803L73.5097 56.7803Z" clip-rule="evenodd"></path>
  <defs>
    <linearGradient id="paint0_linear_546_8741" x1="63.79" x2="63.79" y1="23.5" y2="104.5" gradientUnits="userSpaceOnUse">
      <stop stop-color="#C1E000"></stop>
      <stop offset="1" stop-color="#8CAF00"></stop>
    </linearGradient>
  </defs>
</svg>
